<svg id="图层_1" data-name="图层 1" xmlns="http://www.w3.org/2000/svg" xmlns:xlink="http://www.w3.org/1999/xlink" viewBox="0 0 41.46 48.78"><defs><style>.cls-1{fill:url(#未命名的渐变_18);}</style><linearGradient id="未命名的渐变_18" x1="31.69" y1="56" x2="31.69" y2="7.22" gradientUnits="userSpaceOnUse"><stop offset="0" stop-color="#478ce2"/><stop offset="1" stop-color="#6caaf7"/></linearGradient></defs><title>news</title><path class="cls-1" d="M50,42.58a2.24,2.24,0,0,1,1.3.35,5.45,5.45,0,0,1-2.52-4.62V27.47A16.71,16.71,0,0,0,35.35,11.26v-.38a3.66,3.66,0,1,0-7.31,0v.38A16.71,16.71,0,0,0,14.62,27.47V38.31a5.48,5.48,0,0,1-2.52,4.62,2.18,2.18,0,0,1,1.29-.35,2.44,2.44,0,0,0,0,4.88H50a2.44,2.44,0,0,0,0-4.88ZM31.7,56a6.1,6.1,0,0,0,6.1-6.1H25.6A6.1,6.1,0,0,0,31.7,56Z" transform="translate(-10.96 -7.22)"/></svg>